<svg fill="#fc516d" height="200px" width="200px" version="1.1" id="Layer_1"
    xmlns="http://www.w3.org/2000/svg" xmlns:xlink="http://www.w3.org/1999/xlink"
    viewBox="0 0 64 64" enable-background="new 0 0 64 64" xml:space="preserve" stroke="#fc516d"
    stroke-width="1.408"><g id="SVGRepo_bgCarrier" stroke-width="0"></g><g id="SVGRepo_tracerCarrier" stroke-linecap="round" stroke-linejoin="round"></g><g id="SVGRepo_iconCarrier"> <g id="Chemistry"> <path d="M17.721117,34.8083V18.2208996h2.5468998c0.5522995,0,1-0.4477005,1-1c0-0.5522003-0.4477005-1-1-1H16.721117H7.2627163 H3.715816c-0.5523,0-1,0.4477997-1,1c0,0.5522995,0.4477,1,1,1h2.5469003V34.8083L0.1425161,55.2072983 c-0.3076,1.0273018-0.1089,2.155201,0.5313,3.0175018c0.6406,0.8614006,1.6645001,1.3759995,2.7392001,1.3759995H20.570816 c1.0746994,0,2.0986004-0.5145988,2.7392006-1.3759995c0.6401997-0.8623009,0.8388996-1.9902,0.5312996-3.0175018 L17.721117,34.8083z M8.2207165,35.2424011c0.0277996-0.092701,0.0419998-0.1898994,0.0419998-0.2871017V18.2208996h7.4583998 v16.7343998c0,0.0972023,0.0142002,0.1944008,0.0419998,0.2871017l2.0966997,6.9888H6.1240163L8.2207165,35.2424011z M21.7045155,57.0315018c-0.2645988,0.3563995-0.6884003,0.5692978-1.1336994,0.5692978H3.4130161 c-0.4453001,0-0.8691001-0.2128983-1.1336999-0.5692978c-0.2657001-0.3574028-0.3482001-0.8242035-0.2207-1.25 l3.4653001-11.5503006h12.9359989l3.4654007,11.5503006C22.0527153,56.2072983,21.9702168,56.674099,21.7045155,57.0315018z"></path> <path d="M42.7314148,16.2208996h-2.3647003H30.908617h-2.3647003c-0.5522003,0-1,0.4477997-1,1c0,0.5522995,0.4477997,1,1,1 h1.3647003v35.3408966c0,2.4765015,1.4794998,4.6875,3.7705975,5.6318016 c0.6626015,0.2724991,1.3281021,0.4081993,1.9926033,0.4081993c0.6117973,0,1.2226982-0.1152,1.8281975-0.3466988 c2.3115005-0.8847008,3.8641968-3.1435013,3.8641968-5.6201019c0.001503-4.582798,0.0020027-15.8042984,0.0022011-24.5902977 l0.0003014-0.0008011l-0.0003014-0.0007992c0.0003014-4.8887997,0.0003014-9.0097008,0.0003014-10.8222008h1.3647003 c0.5522003,0,1-0.4477005,1-1C43.7314148,16.6686993,43.2836151,16.2208996,42.7314148,16.2208996z M36.7866135,57.387001 c-0.7817993,0.2987976-1.5497971,0.2840996-2.346199-0.0429993c-1.5380974-0.6338005-2.5317974-2.1182022-2.5317974-3.7822037 V30.0436993h7.4577961c-0.0001984,8.6199017-0.0009995,19.1807995-0.0022011,23.5912991 C39.364212,55.2882996,38.3276138,56.7971001,36.7866135,57.387001z M39.3664131,28.0436993H31.908617v-9.8227997h7.4580975 C39.3667145,19.9160995,39.3667145,23.6103001,39.3664131,28.0436993z"></path> <path d="M62.9995155,16.2208996h-2.3648033h-9.4584999h-2.3642006c-0.5522995,0-1,0.4477997-1,1c0,0.5522995,0.4477005,1,1,1 h1.3642006v35.3408966c0,2.4765015,1.4794998,4.6865005,3.7714996,5.6318016 c0.6626015,0.2724991,1.3281021,0.4081993,1.9922028,0.4081993c0.6122971,0,1.2226982-0.1152,1.8286018-0.3466988 c2.3110008-0.8847008,3.8637962-3.1435013,3.8637962-5.6201019c0.0009995-3.2140999,0.0015984-9.6963997,0.0018997-16.3125 l0.0004997-0.0023994l-0.0004997-0.0015984c0.0004005-8.0662003,0.0004997-16.3125,0.0004997-19.0976009h1.3648033 c0.5521965,0,1-0.4477005,1-1C63.9995155,16.6686993,63.551712,16.2208996,62.9995155,16.2208996z M57.0546112,57.387001 c-0.7821999,0.2987976-1.5497971,0.2840996-2.346096-0.0429993c-1.5381012-0.6338005-2.5323029-2.1192017-2.5323029-3.7822037 V38.3200989h7.4578018c-0.0003014,6.2624016-0.0009003,12.2625008-0.0017014,15.3148994 C59.6323128,55.2882996,58.5957146,56.7971001,57.0546112,57.387001z M59.6342125,36.3200989h-7.4580002V18.2208996h7.4584999 C59.6347122,20.9062004,59.634613,28.5969009,59.6342125,36.3200989z"></path> <path d="M11.995616,12.3093004c0.5522003,0,1-0.4477005,1-1V6.3982h21.6420975v4.9111004c0,0.5522995,0.4477005,1,1,1 c0.5522003,0,1-0.4477005,1-1V6.3982h18.0985985v4.9111004c0,0.5522995,0.4477005,1,1,1c0.5522041,0,1-0.4477005,1-1V5.3982 c0-0.5523-0.4477959-1-1-1H11.995616c-0.5522995,0-1,0.4477-1,1v5.9111004 C10.995616,11.8615999,11.4433165,12.3093004,11.995616,12.3093004z"></path> </g> </g></svg>