<svg version="1.1" id="Layer_1" xmlns="http://www.w3.org/2000/svg" xmlns:xlink="http://www.w3.org/1999/xlink" x="0px" y="0px"
	 width="100%" viewBox="0 0 775 294" enable-background="new 0 0 775 294" xml:space="preserve">
<path fill="" opacity="0.000000" stroke="none" 
	d="
M488.000000,295.000000 
	C325.371246,295.000000 163.242462,295.000000 1.056850,295.000000 
	C1.056850,197.060837 1.056850,99.121620 1.056850,1.091205 
	C259.212128,1.091205 517.424316,1.091205 775.818237,1.091205 
	C775.818237,98.999733 775.818237,196.999832 775.818237,295.000000 
	C680.121582,295.000000 584.310791,295.000000 488.000000,295.000000 
M717.353516,127.198883 
	C727.952942,128.733231 731.041748,132.139389 731.210754,142.917511 
	C731.341370,151.247345 731.242126,159.580795 731.243652,167.912628 
	C731.244812,174.529007 731.243835,181.145370 731.243835,187.886261 
	C738.750427,187.886261 745.655090,187.886261 752.666199,187.886261 
	C752.666199,169.811539 753.486633,151.973129 752.427917,134.246948 
	C751.433838,117.601974 740.991333,109.550674 724.295105,110.003036 
	C715.512390,110.240990 707.871826,113.248894 700.571716,120.174393 
	C700.571716,103.939270 700.571716,89.058228 700.571716,74.164352 
	C693.081116,74.164352 686.181152,74.164352 679.246826,74.164352 
	C679.246826,112.253609 679.246826,150.005447 679.246826,187.851837 
	C686.391907,187.851837 693.279358,187.851837 700.600037,187.851837 
	C700.600037,173.733749 700.537659,159.931595 700.618835,146.130264 
	C700.689880,134.056503 704.818970,129.235229 717.353516,127.198883 
M448.293549,170.036530 
	C441.131195,174.208603 433.866119,173.769287 426.982971,169.739090 
	C421.285522,166.403107 418.917542,160.894409 418.725159,153.919373 
	C437.724030,153.919373 456.310303,153.919373 475.159821,153.919373 
	C475.810333,142.504410 474.662384,131.924576 467.554138,122.863983 
	C458.237915,110.988945 439.719818,106.727562 422.245514,112.265358 
	C407.818939,116.837296 398.124329,129.712784 397.288574,146.225021 
	C396.607269,159.685654 399.286987,172.180344 410.503510,181.176605 
	C423.321381,191.457230 444.912384,192.937134 459.001190,184.541245 
	C466.315582,180.182404 471.554138,174.066116 474.068420,165.490738 
	C471.563293,165.091660 469.573242,164.899521 467.644897,164.445221 
	C460.438477,162.747452 453.347992,161.311783 448.293549,170.036530 
M533.195129,137.418732 
	C530.696838,138.612518 528.295776,140.110229 525.682922,140.945786 
	C516.060059,144.023041 506.026489,146.088043 496.799469,150.051743 
	C488.152405,153.766342 485.017883,162.725266 486.738190,172.927124 
	C488.254303,181.918350 493.801514,187.410873 503.297485,189.131271 
	C514.902161,191.233734 525.370972,188.739349 534.697937,180.703766 
	C535.436279,183.360199 536.074463,185.656281 536.640747,187.693481 
	C543.533691,187.693481 550.051147,187.693481 555.903931,187.693481 
	C555.541016,179.120239 555.129150,171.004578 554.870667,162.884048 
	C554.531921,152.241547 554.780151,141.556503 553.900146,130.962479 
	C553.167786,122.145271 547.983704,115.903564 539.532349,112.860657 
	C526.394104,108.130203 513.247437,108.673752 500.661804,114.441780 
	C493.045410,117.932388 488.648773,124.419174 487.537415,133.319427 
	C494.033447,134.483459 500.012115,135.554779 505.888123,136.607712 
	C509.916840,126.429787 516.648376,123.007584 526.528748,125.735359 
	C532.509460,127.386513 534.446899,130.381134 533.195129,137.418732 
M646.645996,158.408264 
	C646.645996,148.452774 646.645996,138.497284 646.645996,127.930557 
	C652.031189,127.930557 657.074463,127.930557 661.945557,127.930557 
	C661.945557,122.090279 661.945557,116.872734 661.945557,111.287010 
	C656.750122,111.287010 651.975342,111.287010 646.636230,111.287010 
	C646.636230,103.013748 646.636230,95.113075 646.636230,86.828094 
	C642.920532,86.828094 639.782654,86.828102 636.644775,86.828102 
	C633.551575,86.828102 630.458374,86.828094 627.699585,86.828094 
	C627.044556,93.472000 627.318359,99.636108 625.669250,105.233734 
	C623.443054,112.790199 615.961914,111.176727 610.141724,111.579910 
	C610.141724,117.328079 610.141724,122.544334 610.141724,128.285004 
	C615.224365,128.285004 619.944031,128.285004 624.934082,128.285004 
	C624.934082,141.623260 624.712341,154.433640 625.000671,167.232544 
	C625.254272,178.488312 632.156311,186.459656 642.974060,187.699402 
	C649.192261,188.412033 655.558960,187.828613 662.000977,187.828613 
	C662.000977,182.594025 662.000977,177.405411 662.000977,172.248444 
	C647.683777,171.287643 646.809631,170.538055 646.645996,158.408264 
M348.500000,188.173172 
	C361.422974,188.173172 374.345947,188.173172 387.359161,188.173172 
	C387.359161,182.386765 387.359161,177.300201 387.359161,171.697067 
	C376.677216,171.697067 366.289307,171.697067 354.985291,171.697067 
	C366.358368,151.322556 377.291138,131.736816 388.456696,111.734077 
	C367.437653,111.734077 347.354279,111.734077 327.260986,111.734077 
	C327.260986,117.301613 327.260986,122.563026 327.260986,128.419342 
	C337.373749,128.419342 347.214233,128.419342 357.781769,128.419342 
	C346.501495,148.648315 335.652618,168.103714 324.461304,188.173203 
	C332.852020,188.173203 340.176025,188.173203 348.500000,188.173172 
M575.748047,170.498993 
	C575.748047,176.264038 575.748047,182.029099 575.748047,187.795486 
	C583.274536,187.795486 590.163757,187.795486 596.968018,187.795486 
	C596.968018,149.692505 596.968018,111.956444 596.968018,74.205643 
	C589.755920,74.205643 582.868530,74.205643 575.747986,74.205643 
	C575.747986,106.214653 575.747986,137.857086 575.748047,170.498993 
M117.491745,256.038025 
	C118.703049,256.906952 119.846489,257.896210 121.137222,258.624329 
	C127.173889,262.029816 134.681595,261.302155 140.279633,256.850555 
	C145.560211,252.651382 147.812805,245.288315 145.915146,238.429474 
	C144.104843,231.886322 138.467438,227.063187 131.644058,226.219681 
	C124.582649,225.346725 117.573547,228.976532 114.150337,235.279144 
	C110.553024,241.902298 111.504242,248.719772 117.491745,256.038025 
M190.577332,33.974358 
	C183.928848,27.693724 176.822815,26.340008 169.678879,29.993166 
	C163.265518,33.272732 159.399124,40.519436 160.408447,47.368530 
	C161.505234,54.811077 166.523849,60.448601 173.503082,62.078075 
	C180.423843,63.693897 187.607162,61.059830 191.609375,55.438633 
	C196.157364,49.050880 195.965729,42.051392 190.577332,33.974358 
M242.539749,153.962814 
	C235.869858,160.367935 234.204300,167.844971 237.830765,175.102280 
	C241.139618,181.723984 248.586929,185.694458 255.563797,184.556549 
	C262.830933,183.371292 268.382568,178.453247 269.996704,171.770889 
	C271.684723,164.782623 269.266418,157.584854 263.579193,153.601013 
	C256.849518,148.886932 249.953827,148.926163 242.539749,153.962814 
M37.347347,126.903862 
	C38.033993,128.229111 38.591618,129.642639 39.428249,130.865265 
	C44.818207,138.742050 55.903576,140.632843 63.696884,135.060181 
	C71.606094,129.404648 73.279160,118.593437 67.454971,110.775787 
	C62.601254,104.260757 53.917614,102.003624 46.491188,105.326675 
	C38.659786,108.830933 35.206974,116.502022 37.347347,126.903862 
M76.836426,81.260727 
	C76.463600,79.149750 76.454720,76.886841 75.648964,74.956573 
	C73.329414,69.399818 68.929710,66.296837 62.930508,66.110275 
	C57.106121,65.929146 52.681999,68.766243 50.019684,73.910515 
	C47.326302,79.114822 47.887413,84.268112 51.469154,88.880554 
	C55.045002,93.485397 59.904671,95.299339 65.604172,94.050415 
	C71.981895,92.652878 75.472206,88.331779 76.836426,81.260727 
M101.405548,228.331558 
	C97.039574,221.013824 90.291283,218.251846 83.450897,220.982956 
	C76.974014,223.568970 73.215004,230.488617 74.717384,237.059799 
	C76.553246,245.089600 84.222862,249.865601 92.132889,247.904709 
	C100.115044,245.925949 104.135849,238.040909 101.405548,228.331558 
M204.564255,51.285561 
	C203.206177,61.420364 210.545120,69.533997 219.957962,68.304199 
	C226.927795,67.393585 232.194061,61.827156 232.549973,54.994514 
	C232.905441,48.170403 227.744919,41.656075 220.875992,40.258026 
	C214.177032,38.894569 207.725037,43.015533 204.564255,51.285561 
M248.409500,139.173401 
	C255.579605,136.105988 259.286743,130.337616 258.288330,123.801849 
	C257.067505,115.810585 250.103668,110.598335 242.268158,111.811226 
	C234.667145,112.987816 229.197601,120.082428 230.201797,127.462692 
	C231.326553,135.729111 238.719345,140.801041 248.409500,139.173401 
M55.665985,175.076645 
	C63.035866,178.262161 69.139977,177.093185 73.566856,171.648453 
	C77.688942,166.578598 77.915497,159.834351 74.056717,154.613815 
	C70.448273,149.731964 65.519791,147.823822 59.644684,149.020721 
	C54.128143,150.144562 50.547600,153.805222 49.056694,159.129578 
	C47.232037,165.645828 49.617390,170.820465 55.665985,175.076645 
M241.206635,194.357224 
	C233.539627,197.055817 229.510254,202.579849 230.167816,209.490829 
	C230.758530,215.699265 235.803238,221.171844 241.819794,222.092087 
	C247.588974,222.974487 252.393936,221.154388 255.794205,216.440994 
	C259.198853,211.721451 259.548737,206.489624 256.659515,201.427567 
	C253.473328,195.845123 248.466125,193.417542 241.206635,194.357224 
M123.161354,48.034016 
	C120.540489,55.166973 121.798889,60.994488 126.862206,65.172218 
	C131.545746,69.036598 138.027863,69.575249 143.107697,66.380997 
	C148.224197,63.163689 150.532593,58.421265 149.887802,52.441204 
	C149.266922,46.682716 144.627365,41.546894 138.773224,40.418144 
	C132.204330,39.151581 127.134552,41.758690 123.161354,48.034016 
M183.428238,227.366150 
	C179.020386,221.272858 173.628525,218.871536 167.789322,220.401230 
	C161.994003,221.919434 157.550079,226.988251 157.007797,232.698822 
	C156.449875,238.573959 159.333740,243.911224 164.569443,246.693436 
	C169.640366,249.388077 175.987091,248.629227 180.344711,244.807175 
	C185.194199,240.553802 186.328644,235.095108 183.428238,227.366150 
M241.427216,68.915123 
	C237.941010,72.359795 237.072250,76.402756 239.259445,80.763496 
	C241.250778,84.733749 244.763840,86.450523 249.180649,85.995827 
	C253.426346,85.558746 256.249786,83.142265 257.484314,79.114555 
	C258.721863,75.076958 257.692078,71.467377 254.431412,68.765480 
	C250.451904,65.467911 246.219681,65.637100 241.427216,68.915123 
M58.588284,202.354324 
	C51.881222,203.711044 48.357704,207.823990 49.060192,213.476318 
	C49.717609,218.766006 54.073250,222.313919 59.544090,222.016052 
	C64.446968,221.749100 68.265343,218.097000 68.807190,213.156296 
	C69.382652,207.908997 65.779510,203.790375 58.588284,202.354324 
M232.160858,95.637634 
	C230.881546,89.296898 226.790146,85.873009 221.279526,86.531570 
	C216.020767,87.160034 212.216202,91.638130 212.504272,96.860245 
	C212.783997,101.931076 216.777008,105.900620 221.829391,106.130547 
	C227.613831,106.393776 231.192871,103.050217 232.160858,95.637634 
M90.519066,42.736126 
	C85.261696,39.881901 80.696182,40.193344 77.371819,43.825699 
	C74.201950,47.289242 73.416328,51.710098 76.143623,55.224983 
	C78.106995,57.755337 82.042000,60.244133 84.979179,60.112404 
	C87.921921,59.980427 91.623199,57.156284 93.358971,54.460598 
	C95.769188,50.717525 94.516678,46.453754 90.519066,42.736126 
M228.274216,245.890305 
	C233.155380,240.887344 233.489899,234.566177 229.085052,230.568390 
	C224.782867,226.663773 218.051025,227.296066 214.488708,231.939377 
	C211.865173,235.359055 211.935715,240.582550 214.576218,244.033920 
	C216.840271,246.993195 222.717514,249.612564 228.274216,245.890305 
M190.628586,211.683640 
	C191.458786,218.824249 194.790070,222.205658 200.818527,222.026886 
	C205.842941,221.877869 209.722763,218.301178 210.149277,213.425110 
	C210.641541,207.797760 207.521393,203.553391 202.158615,202.555298 
	C196.615723,201.523666 192.414322,204.615402 190.628586,211.683640 
M81.370125,201.527802 
	C86.533241,202.923767 90.703506,201.442703 93.213310,196.729050 
	C95.359291,192.698685 94.857704,188.585526 91.586868,185.261093 
	C88.843513,182.472778 85.495598,181.473160 81.548424,182.796951 
	C77.656013,184.102386 75.388443,186.695145 74.892761,190.673935 
	C74.294174,195.478714 76.091873,199.132523 81.370125,201.527802 
M96.928917,73.988625 
	C96.864143,74.815781 96.711250,75.646950 96.748711,76.469452 
	C97.019211,82.408150 101.316277,86.340202 107.139168,86.019318 
	C112.668289,85.714622 116.406540,81.429298 116.173439,75.662926 
	C115.984329,70.984772 113.093414,67.602875 108.445816,66.622849 
	C103.534035,65.587120 99.985390,67.632332 96.928917,73.988625 
M262.416138,106.051064 
	C267.503082,106.778572 270.868469,104.883400 270.380157,100.954193 
	C270.125305,98.903618 268.326385,95.901566 266.664337,95.465446 
	C264.690613,94.947540 261.327057,96.059776 259.973724,97.657890 
	C257.636993,100.417297 258.846527,103.521103 262.416138,106.051064 
M108.039421,27.910427 
	C106.506081,29.995983 104.292206,31.912388 103.714767,34.235542 
	C103.407188,35.472988 105.633575,38.204201 107.259323,38.814518 
	C108.875053,39.421078 111.735985,38.820763 113.011261,37.633244 
	C114.297539,36.435482 115.354622,33.232182 114.635246,32.041950 
	C113.483948,30.137114 110.783035,29.168865 108.039421,27.910427 
M107.912506,202.176926 
	C103.171570,204.802765 101.751862,209.163269 105.191238,211.822617 
	C106.798943,213.065689 110.082497,213.727432 111.722191,212.900085 
	C113.385132,212.061035 114.822021,209.057785 114.813858,207.008560 
	C114.800186,203.580353 112.085785,202.038254 107.912506,202.176926 
M193.040680,84.113953 
	C195.573441,84.610504 198.322876,85.909576 200.558609,85.305954 
	C201.923965,84.937325 203.374924,81.582657 203.243866,79.675148 
	C202.986069,75.922356 200.137878,74.339882 196.436203,74.928551 
	C192.710434,75.521042 191.414246,78.577957 193.040680,84.113953 
M95.549507,104.016472 
	C97.293953,100.960289 97.015083,97.904938 94.039062,96.187607 
	C92.363640,95.220795 89.257416,95.008278 87.747894,95.962379 
	C86.225845,96.924400 85.043198,99.813049 85.188095,101.746971 
	C85.540550,106.451164 90.125290,107.610153 95.549507,104.016472 
M211.230362,184.743149 
	C211.553238,187.142944 211.323395,189.845978 212.410141,191.826675 
	C213.043152,192.980377 216.133804,193.835098 217.492371,193.283066 
	C219.305237,192.546402 221.440887,190.455597 221.713638,188.681366 
	C221.986465,186.906509 220.613266,184.232208 219.107361,182.977158 
	C216.659897,180.937363 213.860138,181.715744 211.230362,184.743149 
M45.881920,192.361908 
	C49.258324,187.592316 48.085945,182.600677 43.214962,182.213318 
	C41.283649,182.059723 38.235760,183.238037 37.447868,184.733063 
	C36.528111,186.478333 36.810749,189.644409 37.855038,191.453003 
	C39.418911,194.161469 42.404472,194.406036 45.881920,192.361908 
M191.876999,255.385941 
	C192.748306,259.467102 195.231964,261.944824 199.261093,260.223450 
	C201.170090,259.407898 203.345520,256.240662 203.167709,254.348618 
	C202.988129,252.437881 200.288498,249.718826 198.260818,249.258942 
	C194.758316,248.464584 192.416107,250.873291 191.876999,255.385941 
M269.891632,123.231483 
	C271.560730,122.054268 273.397156,121.029709 274.741272,119.556091 
	C274.977295,119.297356 273.330109,116.333893 272.228851,116.091705 
	C270.845093,115.787384 267.912354,116.825134 267.802521,117.592247 
	C267.558594,119.295479 268.657593,121.191002 269.891632,123.231483 
M82.505539,122.740997 
	C84.486336,122.192711 86.604294,121.887756 88.342064,120.908279 
	C88.729134,120.690109 88.246552,117.368248 87.328850,116.780945 
	C86.111717,116.002022 82.974815,115.908501 82.610733,116.578667 
	C81.777565,118.112289 82.126984,120.288376 82.505539,122.740997 
M179.440384,264.815308 
	C182.270538,263.960114 183.953796,262.077484 182.571365,259.279327 
	C181.982285,258.086975 179.690567,257.195496 178.172348,257.195160 
	C177.183762,257.194916 175.183517,259.410187 175.395737,260.001190 
	C176.028748,261.764160 177.529633,263.215454 179.440384,264.815308 
M130.524368,216.925949 
	C130.590164,214.921066 130.997253,212.823303 130.493805,210.973358 
	C130.359543,210.480011 127.111641,210.163223 125.897545,210.843643 
	C124.899849,211.402802 124.042793,214.535217 124.431976,214.836472 
	C125.951035,216.012238 127.990265,216.515945 130.524368,216.925949 
M175.999695,72.354713 
	C174.339325,74.845840 175.028931,76.985466 177.555283,78.016502 
	C178.745728,78.502350 181.026443,78.123299 181.834915,77.240410 
	C182.676437,76.321411 182.851501,73.185204 182.427353,72.993988 
	C180.647522,72.191574 178.533997,72.129303 175.999695,72.354713 
M129.066406,24.016127 
	C127.423386,24.783604 125.538322,25.284138 124.254684,26.447981 
	C123.730255,26.923470 124.114334,29.600744 124.772667,29.939293 
	C126.295143,30.722223 128.761536,31.532663 129.906723,30.821278 
	C132.821594,29.010595 132.364838,26.463207 129.066406,24.016127 
M218.579193,167.161636 
	C219.333557,169.033585 220.087921,170.905548 220.842270,172.777527 
	C222.381638,172.155731 224.433563,171.922821 225.295349,170.786957 
	C225.963776,169.905930 225.456528,166.739166 224.931931,166.598251 
	C223.080139,166.100754 220.996002,166.468185 218.579193,167.161636 
M39.976097,169.368484 
	C39.619541,165.876114 37.791965,164.173477 34.379734,165.526932 
	C33.319046,165.947662 32.103054,167.824097 32.219307,168.897522 
	C32.364815,170.241104 33.905910,172.550674 34.675823,172.484360 
	C36.452911,172.331268 38.128155,170.996017 39.976097,169.368484 
z"/>
<path fill="#000000" opacity="1.000000" stroke="none" 
	d="
M716.945435,127.195557 
	C704.818970,129.235229 700.689880,134.056503 700.618835,146.130264 
	C700.537659,159.931595 700.600037,173.733749 700.600037,187.851837 
	C693.279358,187.851837 686.391907,187.851837 679.246826,187.851837 
	C679.246826,150.005447 679.246826,112.253609 679.246826,74.164352 
	C686.181152,74.164352 693.081116,74.164352 700.571716,74.164352 
	C700.571716,89.058228 700.571716,103.939270 700.571716,120.174393 
	C707.871826,113.248894 715.512390,110.240990 724.295105,110.003036 
	C740.991333,109.550674 751.433838,117.601974 752.427917,134.246948 
	C753.486633,151.973129 752.666199,169.811539 752.666199,187.886261 
	C745.655090,187.886261 738.750427,187.886261 731.243835,187.886261 
	C731.243835,181.145370 731.244812,174.529007 731.243652,167.912628 
	C731.242126,159.580795 731.341370,151.247345 731.210754,142.917511 
	C731.041748,132.139389 727.952942,128.733231 716.945435,127.195557 
z"/>
<path fill="#000000" opacity="1.000000" stroke="none" 
	d="
M448.606964,169.826324 
	C453.347992,161.311783 460.438477,162.747452 467.644897,164.445221 
	C469.573242,164.899521 471.563293,165.091660 474.068420,165.490738 
	C471.554138,174.066116 466.315582,180.182404 459.001190,184.541245 
	C444.912384,192.937134 423.321381,191.457230 410.503510,181.176605 
	C399.286987,172.180344 396.607269,159.685654 397.288574,146.225021 
	C398.124329,129.712784 407.818939,116.837296 422.245514,112.265358 
	C439.719818,106.727562 458.237915,110.988945 467.554138,122.863983 
	C474.662384,131.924576 475.810333,142.504410 475.159821,153.919373 
	C456.310303,153.919373 437.724030,153.919373 418.725159,153.919373 
	C418.917542,160.894409 421.285522,166.403107 426.982971,169.739090 
	C433.866119,173.769287 441.131195,174.208603 448.606964,169.826324 
M446.747894,127.507118 
	C433.143280,121.914375 421.560394,127.114082 419.461975,139.824448 
	C430.903290,139.824448 442.331696,139.824448 453.775665,139.824448 
	C453.231262,133.999741 452.189270,132.097305 446.747894,127.507118 
z"/>
<path fill="#000000" opacity="1.000000" stroke="none" 
	d="
M533.430176,137.092438 
	C534.446899,130.381134 532.509460,127.386513 526.528748,125.735359 
	C516.648376,123.007584 509.916840,126.429787 505.888123,136.607712 
	C500.012115,135.554779 494.033447,134.483459 487.537415,133.319427 
	C488.648773,124.419174 493.045410,117.932388 500.661804,114.441780 
	C513.247437,108.673752 526.394104,108.130203 539.532349,112.860657 
	C547.983704,115.903564 553.167786,122.145271 553.900146,130.962479 
	C554.780151,141.556503 554.531921,152.241547 554.870667,162.884048 
	C555.129150,171.004578 555.541016,179.120239 555.903931,187.693481 
	C550.051147,187.693481 543.533691,187.693481 536.640747,187.693481 
	C536.074463,185.656281 535.436279,183.360199 534.697937,180.703766 
	C525.370972,188.739349 514.902161,191.233734 503.297485,189.131271 
	C493.801514,187.410873 488.254303,181.918350 486.738190,172.927124 
	C485.017883,162.725266 488.152405,153.766342 496.799469,150.051743 
	C506.026489,146.088043 516.060059,144.023041 525.682922,140.945786 
	C528.295776,140.110229 530.696838,138.612518 533.430176,137.092438 
M519.395447,157.896286 
	C517.172729,158.561188 514.898926,159.092834 512.738647,159.920654 
	C509.047943,161.334946 506.335815,163.614166 506.998413,168.096786 
	C507.665283,172.608185 510.733002,174.497955 514.924133,175.000809 
	C527.242981,176.478790 536.696533,166.321945 534.566223,153.874741 
	C534.074646,153.901093 533.553528,153.836746 533.087830,153.968399 
	C528.776184,155.187103 524.474121,156.439621 519.395447,157.896286 
z"/>
<path fill="#000000" opacity="1.000000" stroke="none" 
	d="
M646.645996,158.891373 
	C646.809631,170.538055 647.683777,171.287643 662.000977,172.248444 
	C662.000977,177.405411 662.000977,182.594025 662.000977,187.828613 
	C655.558960,187.828613 649.192261,188.412033 642.974060,187.699402 
	C632.156311,186.459656 625.254272,178.488312 625.000671,167.232544 
	C624.712341,154.433640 624.934082,141.623260 624.934082,128.285004 
	C619.944031,128.285004 615.224365,128.285004 610.141724,128.285004 
	C610.141724,122.544334 610.141724,117.328079 610.141724,111.579910 
	C615.961914,111.176727 623.443054,112.790199 625.669250,105.233734 
	C627.318359,99.636108 627.044556,93.472000 627.699585,86.828094 
	C630.458374,86.828094 633.551575,86.828102 636.644775,86.828102 
	C639.782654,86.828102 642.920532,86.828094 646.636230,86.828094 
	C646.636230,95.113075 646.636230,103.013748 646.636230,111.287010 
	C651.975342,111.287010 656.750122,111.287010 661.945557,111.287010 
	C661.945557,116.872734 661.945557,122.090279 661.945557,127.930557 
	C657.074463,127.930557 652.031189,127.930557 646.645996,127.930557 
	C646.645996,138.497284 646.645996,148.452774 646.645996,158.891373 
z"/>
<path fill="#000000" opacity="1.000000" stroke="none" 
	d="
M348.000000,188.173187 
	C340.176025,188.173203 332.852020,188.173203 324.461304,188.173203 
	C335.652618,168.103714 346.501495,148.648315 357.781769,128.419342 
	C347.214233,128.419342 337.373749,128.419342 327.260986,128.419342 
	C327.260986,122.563026 327.260986,117.301613 327.260986,111.734077 
	C347.354279,111.734077 367.437653,111.734077 388.456696,111.734077 
	C377.291138,131.736816 366.358368,151.322556 354.985291,171.697067 
	C366.289307,171.697067 376.677216,171.697067 387.359161,171.697067 
	C387.359161,177.300201 387.359161,182.386765 387.359161,188.173172 
	C374.345947,188.173172 361.422974,188.173172 348.000000,188.173187 
z"/>
<path fill="#000000" opacity="1.000000" stroke="none" 
	d="
M575.748047,169.999252 
	C575.747986,137.857086 575.747986,106.214653 575.747986,74.205643 
	C582.868530,74.205643 589.755920,74.205643 596.968018,74.205643 
	C596.968018,111.956444 596.968018,149.692505 596.968018,187.795486 
	C590.163757,187.795486 583.274536,187.795486 575.748047,187.795486 
	C575.748047,182.029099 575.748047,176.264038 575.748047,169.999252 
z"/>
<path fill="#000000" opacity="1.000000" stroke="none" 
	d="
M117.233635,255.782745 
	C111.504242,248.719772 110.553024,241.902298 114.150337,235.279144 
	C117.573547,228.976532 124.582649,225.346725 131.644058,226.219681 
	C138.467438,227.063187 144.104843,231.886322 145.915146,238.429474 
	C147.812805,245.288315 145.560211,252.651382 140.279633,256.850555 
	C134.681595,261.302155 127.173889,262.029816 121.137222,258.624329 
	C119.846489,257.896210 118.703049,256.906952 117.233635,255.782745 
z"/>
<path fill="#000000" opacity="1.000000" stroke="none" 
	d="
M190.807251,34.257088 
	C195.965729,42.051392 196.157364,49.050880 191.609375,55.438633 
	C187.607162,61.059830 180.423843,63.693897 173.503082,62.078075 
	C166.523849,60.448601 161.505234,54.811077 160.408447,47.368530 
	C159.399124,40.519436 163.265518,33.272732 169.678879,29.993166 
	C176.822815,26.340008 183.928848,27.693724 190.807251,34.257088 
z"/>
<path fill="#000000" opacity="1.000000" stroke="none" 
	d="
M242.820282,153.722473 
	C249.953827,148.926163 256.849518,148.886932 263.579193,153.601013 
	C269.266418,157.584854 271.684723,164.782623 269.996704,171.770889 
	C268.382568,178.453247 262.830933,183.371292 255.563797,184.556549 
	C248.586929,185.694458 241.139618,181.723984 237.830765,175.102280 
	C234.204300,167.844971 235.869858,160.367935 242.820282,153.722473 
z"/>
<path fill="#000000" opacity="1.000000" stroke="none" 
	d="
M37.232719,126.527328 
	C35.206974,116.502022 38.659786,108.830933 46.491188,105.326675 
	C53.917614,102.003624 62.601254,104.260757 67.454971,110.775787 
	C73.279160,118.593437 71.606094,129.404648 63.696884,135.060181 
	C55.903576,140.632843 44.818207,138.742050 39.428249,130.865265 
	C38.591618,129.642639 38.033993,128.229111 37.232719,126.527328 
z"/>
<path fill="#000000" opacity="1.000000" stroke="none" 
	d="
M76.784698,81.660812 
	C75.472206,88.331779 71.981895,92.652878 65.604172,94.050415 
	C59.904671,95.299339 55.045002,93.485397 51.469154,88.880554 
	C47.887413,84.268112 47.326302,79.114822 50.019684,73.910515 
	C52.681999,68.766243 57.106121,65.929146 62.930508,66.110275 
	C68.929710,66.296837 73.329414,69.399818 75.648964,74.956573 
	C76.454720,76.886841 76.463600,79.149750 76.784698,81.660812 
z"/>
<path fill="#000000" opacity="1.000000" stroke="none" 
	d="
M101.584961,228.674164 
	C104.135849,238.040909 100.115044,245.925949 92.132889,247.904709 
	C84.222862,249.865601 76.553246,245.089600 74.717384,237.059799 
	C73.215004,230.488617 76.974014,223.568970 83.450897,220.982956 
	C90.291283,218.251846 97.039574,221.013824 101.584961,228.674164 
z"/>
<path fill="#000000" opacity="1.000000" stroke="none" 
	d="
M204.681396,50.906227 
	C207.725037,43.015533 214.177032,38.894569 220.875992,40.258026 
	C227.744919,41.656075 232.905441,48.170403 232.549973,54.994514 
	C232.194061,61.827156 226.927795,67.393585 219.957962,68.304199 
	C210.545120,69.533997 203.206177,61.420364 204.681396,50.906227 
z"/>
<path fill="#000000" opacity="1.000000" stroke="none" 
	d="
M248.034607,139.306671 
	C238.719345,140.801041 231.326553,135.729111 230.201797,127.462692 
	C229.197601,120.082428 234.667145,112.987816 242.268158,111.811226 
	C250.103668,110.598335 257.067505,115.810585 258.288330,123.801849 
	C259.286743,130.337616 255.579605,136.105988 248.034607,139.306671 
z"/>
<path fill="#000000" opacity="1.000000" stroke="none" 
	d="
M55.327400,174.904602 
	C49.617390,170.820465 47.232037,165.645828 49.056694,159.129578 
	C50.547600,153.805222 54.128143,150.144562 59.644684,149.020721 
	C65.519791,147.823822 70.448273,149.731964 74.056717,154.613815 
	C77.915497,159.834351 77.688942,166.578598 73.566856,171.648453 
	C69.139977,177.093185 63.035866,178.262161 55.327400,174.904602 
z"/>
<path fill="#000000" opacity="1.000000" stroke="none" 
	d="
M241.607422,194.275177 
	C248.466125,193.417542 253.473328,195.845123 256.659515,201.427567 
	C259.548737,206.489624 259.198853,211.721451 255.794205,216.440994 
	C252.393936,221.154388 247.588974,222.974487 241.819794,222.092087 
	C235.803238,221.171844 230.758530,215.699265 230.167816,209.490829 
	C229.510254,202.579849 233.539627,197.055817 241.607422,194.275177 
z"/>
<path fill="#000000" opacity="1.000000" stroke="none" 
	d="
M123.365005,47.699459 
	C127.134552,41.758690 132.204330,39.151581 138.773224,40.418144 
	C144.627365,41.546894 149.266922,46.682716 149.887802,52.441204 
	C150.532593,58.421265 148.224197,63.163689 143.107697,66.380997 
	C138.027863,69.575249 131.545746,69.036598 126.862206,65.172218 
	C121.798889,60.994488 120.540489,55.166973 123.365005,47.699459 
z"/>
<path fill="#000000" opacity="1.000000" stroke="none" 
	d="
M183.627960,227.707138 
	C186.328644,235.095108 185.194199,240.553802 180.344711,244.807175 
	C175.987091,248.629227 169.640366,249.388077 164.569443,246.693436 
	C159.333740,243.911224 156.449875,238.573959 157.007797,232.698822 
	C157.550079,226.988251 161.994003,221.919434 167.789322,220.401230 
	C173.628525,218.871536 179.020386,221.272858 183.627960,227.707138 
z"/>
<path fill="#000000" opacity="1.000000" stroke="none" 
	d="
M241.706818,68.658936 
	C246.219681,65.637100 250.451904,65.467911 254.431412,68.765480 
	C257.692078,71.467377 258.721863,75.076958 257.484314,79.114555 
	C256.249786,83.142265 253.426346,85.558746 249.180649,85.995827 
	C244.763840,86.450523 241.250778,84.733749 239.259445,80.763496 
	C237.072250,76.402756 237.941010,72.359795 241.706818,68.658936 
z"/>
<path fill="#000000" opacity="1.000000" stroke="none" 
	d="
M58.972805,202.354431 
	C65.779510,203.790375 69.382652,207.908997 68.807190,213.156296 
	C68.265343,218.097000 64.446968,221.749100 59.544090,222.016052 
	C54.073250,222.313919 49.717609,218.766006 49.060192,213.476318 
	C48.357704,207.823990 51.881222,203.711044 58.972805,202.354431 
z"/>
<path fill="#000000" opacity="1.000000" stroke="none" 
	d="
M232.166229,96.053207 
	C231.192871,103.050217 227.613831,106.393776 221.829391,106.130547 
	C216.777008,105.900620 212.783997,101.931076 212.504272,96.860245 
	C212.216202,91.638130 216.020767,87.160034 221.279526,86.531570 
	C226.790146,85.873009 230.881546,89.296898 232.166229,96.053207 
z"/>
<path fill="#000000" opacity="1.000000" stroke="none" 
	d="
M90.823639,42.972763 
	C94.516678,46.453754 95.769188,50.717525 93.358971,54.460598 
	C91.623199,57.156284 87.921921,59.980427 84.979179,60.112404 
	C82.042000,60.244133 78.106995,57.755337 76.143623,55.224983 
	C73.416328,51.710098 74.201950,47.289242 77.371819,43.825699 
	C80.696182,40.193344 85.261696,39.881901 90.823639,42.972763 
z"/>
<path fill="#000000" opacity="1.000000" stroke="none" 
	d="
M227.940704,246.088074 
	C222.717514,249.612564 216.840271,246.993195 214.576218,244.033920 
	C211.935715,240.582550 211.865173,235.359055 214.488708,231.939377 
	C218.051025,227.296066 224.782867,226.663773 229.085052,230.568390 
	C233.489899,234.566177 233.155380,240.887344 227.940704,246.088074 
z"/>
<path fill="#000000" opacity="1.000000" stroke="none" 
	d="
M190.688919,211.317413 
	C192.414322,204.615402 196.615723,201.523666 202.158615,202.555298 
	C207.521393,203.553391 210.641541,207.797760 210.149277,213.425110 
	C209.722763,218.301178 205.842941,221.877869 200.818527,222.026886 
	C194.790070,222.205658 191.458786,218.824249 190.688919,211.317413 
z"/>
<path fill="#000000" opacity="1.000000" stroke="none" 
	d="
M81.011368,201.360016 
	C76.091873,199.132523 74.294174,195.478714 74.892761,190.673935 
	C75.388443,186.695145 77.656013,184.102386 81.548424,182.796951 
	C85.495598,181.473160 88.843513,182.472778 91.586868,185.261093 
	C94.857704,188.585526 95.359291,192.698685 93.213310,196.729050 
	C90.703506,201.442703 86.533241,202.923767 81.011368,201.360016 
z"/>
<path fill="#000000" opacity="1.000000" stroke="none" 
	d="
M96.997238,73.585152 
	C99.985390,67.632332 103.534035,65.587120 108.445816,66.622849 
	C113.093414,67.602875 115.984329,70.984772 116.173439,75.662926 
	C116.406540,81.429298 112.668289,85.714622 107.139168,86.019318 
	C101.316277,86.340202 97.019211,82.408150 96.748711,76.469452 
	C96.711250,75.646950 96.864143,74.815781 96.997238,73.585152 
z"/>
<path fill="#000000" opacity="1.000000" stroke="none" 
	d="
M262.070801,105.896286 
	C258.846527,103.521103 257.636993,100.417297 259.973724,97.657890 
	C261.327057,96.059776 264.690613,94.947540 266.664337,95.465446 
	C268.326385,95.901566 270.125305,98.903618 270.380157,100.954193 
	C270.868469,104.883400 267.503082,106.778572 262.070801,105.896286 
z"/>
<path fill="#000000" opacity="1.000000" stroke="none" 
	d="
M108.388290,27.857571 
	C110.783035,29.168865 113.483948,30.137114 114.635246,32.041950 
	C115.354622,33.232182 114.297539,36.435482 113.011261,37.633244 
	C111.735985,38.820763 108.875053,39.421078 107.259323,38.814518 
	C105.633575,38.204201 103.407188,35.472988 103.714767,34.235542 
	C104.292206,31.912388 106.506081,29.995983 108.388290,27.857571 
z"/>
<path fill="#000000" opacity="1.000000" stroke="none" 
	d="
M108.292572,202.111359 
	C112.085785,202.038254 114.800186,203.580353 114.813858,207.008560 
	C114.822021,209.057785 113.385132,212.061035 111.722191,212.900085 
	C110.082497,213.727432 106.798943,213.065689 105.191238,211.822617 
	C101.751862,209.163269 103.171570,204.802765 108.292572,202.111359 
z"/>
<path fill="#000000" opacity="1.000000" stroke="none" 
	d="
M192.832626,83.788734 
	C191.414246,78.577957 192.710434,75.521042 196.436203,74.928551 
	C200.137878,74.339882 202.986069,75.922356 203.243866,79.675148 
	C203.374924,81.582657 201.923965,84.937325 200.558609,85.305954 
	C198.322876,85.909576 195.573441,84.610504 192.832626,83.788734 
z"/>
<path fill="#000000" opacity="1.000000" stroke="none" 
	d="
M95.307014,104.291153 
	C90.125290,107.610153 85.540550,106.451164 85.188095,101.746971 
	C85.043198,99.813049 86.225845,96.924400 87.747894,95.962379 
	C89.257416,95.008278 92.363640,95.220795 94.039062,96.187607 
	C97.015083,97.904938 97.293953,100.960289 95.307014,104.291153 
z"/>
<path fill="#000000" opacity="1.000000" stroke="none" 
	d="
M211.466431,184.446533 
	C213.860138,181.715744 216.659897,180.937363 219.107361,182.977158 
	C220.613266,184.232208 221.986465,186.906509 221.713638,188.681366 
	C221.440887,190.455597 219.305237,192.546402 217.492371,193.283066 
	C216.133804,193.835098 213.043152,192.980377 212.410141,191.826675 
	C211.323395,189.845978 211.553238,187.142944 211.466431,184.446533 
z"/>
<path fill="#000000" opacity="1.000000" stroke="none" 
	d="
M45.574024,192.586670 
	C42.404472,194.406036 39.418911,194.161469 37.855038,191.453003 
	C36.810749,189.644409 36.528111,186.478333 37.447868,184.733063 
	C38.235760,183.238037 41.283649,182.059723 43.214962,182.213318 
	C48.085945,182.600677 49.258324,187.592316 45.574024,192.586670 
z"/>
<path fill="#000000" opacity="1.000000" stroke="none" 
	d="
M191.876129,254.986053 
	C192.416107,250.873291 194.758316,248.464584 198.260818,249.258942 
	C200.288498,249.718826 202.988129,252.437881 203.167709,254.348618 
	C203.345520,256.240662 201.170090,259.407898 199.261093,260.223450 
	C195.231964,261.944824 192.748306,259.467102 191.876129,254.986053 
z"/>
<path fill="#000000" opacity="1.000000" stroke="none" 
	d="
M269.550354,123.119804 
	C268.657593,121.191002 267.558594,119.295479 267.802521,117.592247 
	C267.912354,116.825134 270.845093,115.787384 272.228851,116.091705 
	C273.330109,116.333893 274.977295,119.297356 274.741272,119.556091 
	C273.397156,121.029709 271.560730,122.054268 269.550354,123.119804 
z"/>
<path fill="#000000" opacity="1.000000" stroke="none" 
	d="
M82.250847,122.472275 
	C82.126984,120.288376 81.777565,118.112289 82.610733,116.578667 
	C82.974815,115.908501 86.111717,116.002022 87.328850,116.780945 
	C88.246552,117.368248 88.729134,120.690109 88.342064,120.908279 
	C86.604294,121.887756 84.486336,122.192711 82.250847,122.472275 
z"/>
<path fill="#000000" opacity="1.000000" stroke="none" 
	d="
M179.065948,264.801910 
	C177.529633,263.215454 176.028748,261.764160 175.395737,260.001190 
	C175.183517,259.410187 177.183762,257.194916 178.172348,257.195160 
	C179.690567,257.195496 181.982285,258.086975 182.571365,259.279327 
	C183.953796,262.077484 182.270538,263.960114 179.065948,264.801910 
z"/>
<path fill="#000000" opacity="1.000000" stroke="none" 
	d="
M130.180237,217.097748 
	C127.990265,216.515945 125.951035,216.012238 124.431976,214.836472 
	C124.042793,214.535217 124.899849,211.402802 125.897545,210.843643 
	C127.111641,210.163223 130.359543,210.480011 130.493805,210.973358 
	C130.997253,212.823303 130.590164,214.921066 130.180237,217.097748 
z"/>
<path fill="#000000" opacity="1.000000" stroke="none" 
	d="
M176.271179,72.075348 
	C178.533997,72.129303 180.647522,72.191574 182.427353,72.993988 
	C182.851501,73.185204 182.676437,76.321411 181.834915,77.240410 
	C181.026443,78.123299 178.745728,78.502350 177.555283,78.016502 
	C175.028931,76.985466 174.339325,74.845840 176.271179,72.075348 
z"/>
<path fill="#000000" opacity="1.000000" stroke="none" 
	d="
M129.431061,24.168888 
	C132.364838,26.463207 132.821594,29.010595 129.906723,30.821278 
	C128.761536,31.532663 126.295143,30.722223 124.772667,29.939293 
	C124.114334,29.600744 123.730255,26.923470 124.254684,26.447981 
	C125.538322,25.284138 127.423386,24.783604 129.431061,24.168888 
z"/>
<path fill="#000000" opacity="1.000000" stroke="none" 
	d="
M218.789581,166.834625 
	C220.996002,166.468185 223.080139,166.100754 224.931931,166.598251 
	C225.456528,166.739166 225.963776,169.905930 225.295349,170.786957 
	C224.433563,171.922821 222.381638,172.155731 220.842285,172.777527 
	C220.087921,170.905548 219.333557,169.033585 218.789581,166.834625 
z"/>
<path fill="#000000" opacity="1.000000" stroke="none" 
	d="
M39.910404,169.754395 
	C38.128155,170.996017 36.452911,172.331268 34.675823,172.484360 
	C33.905910,172.550674 32.364815,170.241104 32.219307,168.897522 
	C32.103054,167.824097 33.319046,165.947662 34.379734,165.526932 
	C37.791965,164.173477 39.619541,165.876114 39.910404,169.754395 
z"/>
<path fill="" opacity="0.000000" stroke="none" 
	d="
M447.051453,127.730446 
	C452.189270,132.097305 453.231262,133.999741 453.775665,139.824448 
	C442.331696,139.824448 430.903290,139.824448 419.461975,139.824448 
	C421.560394,127.114082 433.143280,121.914375 447.051453,127.730446 
z"/>
<path fill="" opacity="0.000000" stroke="none" 
	d="
M519.782349,157.789307 
	C524.474121,156.439621 528.776184,155.187103 533.087830,153.968399 
	C533.553528,153.836746 534.074646,153.901093 534.566223,153.874741 
	C536.696533,166.321945 527.242981,176.478790 514.924133,175.000809 
	C510.733002,174.497955 507.665283,172.608185 506.998413,168.096786 
	C506.335815,163.614166 509.047943,161.334946 512.738647,159.920654 
	C514.898926,159.092834 517.172729,158.561188 519.782349,157.789307 
z"/>
</svg>